<?xml version="1.0" encoding="utf-8"?>
<!-- Generator: Adobe Illustrator 26.0.1, SVG Export Plug-In . SVG Version: 6.00 Build 0)  -->
<svg version="1.1" id="레이어_1" xmlns="http://www.w3.org/2000/svg" xmlns:xlink="http://www.w3.org/1999/xlink" x="0px"
	 y="0px" viewBox="0 0 63.9 63.9" style="enable-background:new 0 0 63.9 63.9;" xml:space="preserve">
<style type="text/css">
	.st0{fill:#FFFFFF;}
</style>
<g id="Group_2470" transform="translate(-1058.164 -9463.33)">
	<path id="Subtraction_24" class="st0" d="M1090.1,9527.3c-17.7,0-32-14.3-32-32c0-12.8,7.7-24.4,19.5-29.4c16.3-6.9,35,0.7,41.9,17
		c6.9,16.3-0.7,35-17,41.9C1098.6,9526.4,1094.4,9527.3,1090.1,9527.3z M1090.4,9480.1c-5,0-5.6,0-7.6,0.1c-1.2,0-2.4,0.2-3.5,0.6
		c-1.6,0.6-2.9,1.9-3.6,3.6c-0.4,1.1-0.6,2.3-0.6,3.5c-0.1,2-0.1,2.6-0.1,7.6c0,5,0,5.6,0.1,7.6c0,1.2,0.2,2.4,0.6,3.5
		c0.3,0.8,0.8,1.6,1.4,2.2c0.6,0.6,1.3,1.1,2.2,1.4c1.1,0.4,2.3,0.6,3.5,0.6c2,0.1,2.5,0.1,7.6,0.1c5.1,0,5.6,0,7.6-0.1
		c1.2,0,2.4-0.2,3.5-0.6c1.6-0.6,2.9-1.9,3.6-3.6c0.4-1.1,0.6-2.3,0.7-3.5c0.1-2,0.1-2.6,0.1-7.6s0-5.6-0.1-7.6
		c0-1.2-0.2-2.4-0.7-3.5c-0.6-1.6-1.9-2.9-3.6-3.6c-1.1-0.4-2.3-0.6-3.5-0.6C1096,9480.2,1095.4,9480.1,1090.4,9480.1z
		 M1090.4,9503.9c-4.6,0-8.4-3.7-8.4-8.4s3.7-8.4,8.4-8.4s8.4,3.7,8.4,8.4l0,0C1098.7,9500.2,1095,9503.9,1090.4,9503.9z
		 M1090.4,9490.2c-2.9,0-5.3,2.4-5.3,5.3s2.4,5.3,5.3,5.3s5.3-2.4,5.3-5.3l0,0C1095.7,9492.6,1093.3,9490.2,1090.4,9490.2z
		 M1100.4,9487.8c-1.2,0-2.3-1-2.3-2.3c0-1.2,1-2.3,2.3-2.3c1.2,0,2.3,1,2.3,2.3C1102.7,9486.8,1101.7,9487.8,1100.4,9487.8z"/>
</g>
</svg>
