<?xml version="1.0" encoding="utf-8"?>
<!-- Generator: Adobe Illustrator 26.0.1, SVG Export Plug-In . SVG Version: 6.00 Build 0)  -->
<svg version="1.1" id="youtube" xmlns="http://www.w3.org/2000/svg" xmlns:xlink="http://www.w3.org/1999/xlink" x="0px" y="0px"
	 viewBox="0 0 63.2 63.2" style="enable-background:new 0 0 63.2 63.2;" xml:space="preserve">
<style type="text/css">
	.st0{fill:#FFFFFF;}
</style>
<path id="Path_72" class="st0" d="M28.1,37.1l9.5-5.5l-9.5-5.5V37.1z"/>
<path id="Path_73" class="st0" d="M31.6,0C14.2,0,0,14.2,0,31.6s14.2,31.6,31.6,31.6c17.5,0,31.6-14.2,31.6-31.6
	C63.2,14.2,49.1,0,31.6,0z M51.4,31.6c0,0,0,6.4-0.8,9.5c-0.5,1.7-1.8,3-3.5,3.5c-3.1,0.8-15.5,0.8-15.5,0.8s-12.3,0-15.5-0.8
	c-1.7-0.5-3-1.8-3.5-3.5c-0.8-3.1-0.8-9.5-0.8-9.5s0-6.4,0.8-9.5c0.5-1.7,1.8-3,3.5-3.5c3.1-0.8,15.5-0.8,15.5-0.8s12.4,0,15.5,0.8
	c1.7,0.5,3,1.8,3.5,3.5C51.4,25.2,51.4,31.6,51.4,31.6z"/>
</svg>
